<?xml version="1.0" standalone="no"?>
<!DOCTYPE svg PUBLIC "-//W3C//DTD SVG 20010904//EN"
 "http://www.w3.org/TR/2001/REC-SVG-20010904/DTD/svg10.dtd">
<svg version="1.0" xmlns="http://www.w3.org/2000/svg"
 width="500.000000pt" height="500.000000pt" viewBox="0 0 500.000000 500.000000"
 preserveAspectRatio="xMidYMid meet">

<g transform="translate(0.000000,500.000000) scale(0.100000,-0.100000)"
fill="#000000" stroke="none">
<path d="M3630 2363 c-48 -7 -145 -46 -186 -74 -211 -144 -218 -461 -15 -668
65 -67 128 -95 248 -110 52 -6 81 -15 89 -26 14 -19 29 -137 21 -159 -3 -8
-34 -19 -79 -26 -75 -13 -108 -31 -108 -60 0 -36 32 -50 118 -50 94 0 86 10
101 -130 8 -68 13 -88 31 -102 27 -22 32 -22 59 0 26 20 29 50 17 167 -10 96
-9 98 88 114 37 7 79 19 92 28 28 18 32 54 8 77 -18 19 -37 19 -123 6 -44 -8
-67 -8 -76 0 -18 15 -30 157 -15 175 6 8 36 28 67 45 198 112 256 332 145 549
-35 69 -139 166 -216 202 -89 42 -180 56 -266 42z m225 -146 c63 -32 139 -111
170 -180 34 -72 35 -181 1 -252 -45 -99 -139 -155 -272 -163 -108 -6 -180 15
-240 70 -93 86 -145 260 -110 368 44 134 142 193 311 186 72 -2 100 -8 140
-29z"/>
</g>
</svg>
